<svg width="84" height="84" viewBox="0 0 84 84" fill="none" xmlns="http://www.w3.org/2000/svg">
<path fill-rule="evenodd" clip-rule="evenodd" d="M4.91113 41.9999C4.91113 32.1634 8.81869 22.7297 15.7742 15.7742C22.7297 8.81869 32.1634 4.91113 41.9999 4.91113C51.8365 4.91113 61.2702 8.81869 68.2257 15.7742C75.1812 22.7297 79.0887 32.1634 79.0887 41.9999C79.0887 51.8365 75.1812 61.2702 68.2257 68.2257C61.2702 75.1812 51.8365 79.0887 41.9999 79.0887C32.1634 79.0887 22.7297 75.1812 15.7742 68.2257C8.81869 61.2702 4.91113 51.8365 4.91113 41.9999ZM41.9999 10.2311C35.8423 10.2313 29.8174 12.0211 24.6582 15.3826C19.499 18.7441 15.4279 23.5325 12.9402 29.1653C10.4525 34.7981 9.65543 41.0325 10.6459 47.1099C11.6364 53.1874 14.3717 58.8461 18.5191 63.3975C21.037 59.4537 24.5084 56.2082 28.6125 53.9609C32.7166 51.7136 37.3209 50.537 41.9999 50.5399C46.6791 50.5365 51.2836 51.7128 55.3878 53.9602C59.4919 56.2075 62.9632 59.4533 65.4807 63.3975C69.6282 58.8461 72.3635 53.1874 73.354 47.1099C74.3444 41.0325 73.5473 34.7981 71.0596 29.1653C68.5719 23.5325 64.5009 18.7441 59.3417 15.3826C54.1825 12.0211 48.1576 10.2313 41.9999 10.2311ZM61.4991 67.0823C59.5175 63.667 56.673 60.8325 53.2507 58.8629C49.8284 56.8932 45.9485 55.8577 41.9999 55.8599C38.0513 55.8577 34.1715 56.8932 30.7492 58.8629C27.3269 60.8325 24.4824 63.667 22.5007 67.0823C28.0714 71.4261 34.9359 73.78 41.9999 73.7687C49.3471 73.7687 56.1119 71.2711 61.4991 67.0823ZM28.8399 36.4279C28.8399 32.9377 30.2264 29.5904 32.6944 27.1224C35.1624 24.6544 38.5097 23.2679 41.9999 23.2679C45.4902 23.2679 48.8375 24.6544 51.3055 27.1224C53.7734 29.5904 55.1599 32.9377 55.1599 36.4279C55.1599 39.9182 53.7734 43.2655 51.3055 45.7335C48.8375 48.2014 45.4902 49.5879 41.9999 49.5879C38.5097 49.5879 35.1624 48.2014 32.6944 45.7335C30.2264 43.2655 28.8399 39.9182 28.8399 36.4279ZM41.9999 28.5879C40.9704 28.5879 39.9509 28.7907 38.9997 29.1847C38.0485 29.5787 37.1842 30.1562 36.4562 30.8842C35.7282 31.6122 35.1507 32.4765 34.7567 33.4277C34.3627 34.3789 34.1599 35.3984 34.1599 36.4279C34.1599 37.4575 34.3627 38.477 34.7567 39.4282C35.1507 40.3794 35.7282 41.2436 36.4562 41.9717C37.1842 42.6997 38.0485 43.2772 38.9997 43.6712C39.9509 44.0651 40.9704 44.2679 41.9999 44.2679C44.0792 44.2679 46.0734 43.4419 47.5437 41.9717C49.0139 40.5014 49.8399 38.5072 49.8399 36.4279C49.8399 34.3486 49.0139 32.3545 47.5437 30.8842C46.0734 29.4139 44.0792 28.5879 41.9999 28.5879Z" fill="#A2AFB9"/>
</svg>
