<svg width="50" height="66" viewBox="0 0 50 66" fill="none" xmlns="http://www.w3.org/2000/svg">
<path d="M20.5 65.9998C19.2266 66.0115 17.9902 65.5758 17.0106 64.7698L1.86988 51.8254C1.33731 51.3758 0.89936 50.8266 0.581347 50.2092C0.263334 49.5919 0.0713425 48.9185 0.0164089 48.2276C-0.0385247 47.5366 0.0448083 46.8417 0.261336 46.1827C0.477863 45.5236 0.823455 44.9133 1.27841 44.3867C2.20394 43.335 3.50882 42.6846 4.91314 42.5751C6.31746 42.4656 7.70922 42.9058 8.78956 43.8011L18.43 52.0011L39.6624 3.50355C39.9065 2.82448 40.2887 2.20217 40.7853 1.67515C41.2818 1.14812 41.8822 0.727597 42.5494 0.439466C43.2166 0.151335 43.9364 0.00177005 44.6642 1.5615e-05C45.3921 -0.00173882 46.1124 0.144366 46.781 0.429277C47.4496 0.714189 48.0521 1.13184 48.5513 1.65647C49.0504 2.18109 49.4355 2.80154 49.683 3.47942C49.9304 4.15731 50.0348 4.87823 49.9898 5.59767C49.9448 6.3171 49.7512 7.01977 49.4211 7.6622L25.3498 62.7198C25.0292 63.4809 24.5288 64.1548 23.8907 64.6848C23.2527 65.2148 22.4955 65.5854 21.6828 65.7655C21.3019 65.8996 20.9036 65.9785 20.5 65.9998Z" fill="#1095C1"/>
</svg>
